:SAMPLES-PER-SECOND 30
:FULLY-SPECIFIED
:DEGREES
722
root  -61.0004 40.5404 -10.716 2.90173 7.49249 3.50848
RightUpLeg  0.455214 -16.952 -13.8383
RightLeg  8.80868 -32.3513 1.19432
RightFoot  -3.06306 -0.484486 6.39487
RightToes  -1.33073e-015 0 -3.6325e-017
Spine  12.1795 1.45216 16.2378
Spine1  6.90243 4.52351 -6.28353
HEad  -16.6441 13.94 -26.4864
LeftShoulder1  -0.014541 3.54098 -33.2446
LeftArm  13.9375 13.3786 -40.5113
LeftForeArm  19.2318 -30.5775 -5.60413
LeftHand  -0.0133599 6.59076 1.99643
RightShoulder  -1.00301 -6.15531 31.2509
RightArm  12.7985 -7.16878 36.5903
RightForeArm  27.9891 66.5126 23.8126
RightHand  -1.04839 14.7039 -6.4644
LeftUpLeg  -14.0075 10.488 0.14541
LeftLeg  6.24227 27.4515 -1.31761
LeftFoot  -2.27501 -0.24322 3.23804
LeftToes  -1.63346e-009 7.54925e-011 9.86887e-012
723
root  -60.7379 40.4983 -10.4223 3.28503 12.6906 3.06146
RightUpLeg  2.62068 -16.728 -13.7651
RightLeg  7.72409 -37.2723 1.59891
RightFoot  -2.79664 -0.580067 7.49988
RightToes  -1.33073e-015 0 -3.6325e-017
Spine  11.363 1.52145 15.7312
Spine1  6.31899 4.60491 -7.01347
HEad  -16.3723 14.9863 -26.121
LeftShoulder1  -0.0494021 3.62801 -33.1577
LeftArm  14.5888 13.9904 -40.0571
LeftForeArm  19.0474 -29.1154 -5.26965
LeftHand  -0.0112318 6.17475 2.7786
RightShoulder  -1.00422 -6.14028 31.4802
RightArm  12.0993 -8.15285 36.7477
RightForeArm  25.6224 65.6057 22.9472
RightHand  -1.35076 15.6271 -7.87761
LeftUpLeg  -13.444 9.82287 0.629448
LeftLeg  5.21534 34.6042 -1.98924
LeftFoot  -1.78452 -0.325614 4.02024
LeftToes  -1.63346e-009 7.54925e-011 9.86887e-012
724
root  -60.2971 40.3862 -10.0247 3.9624 17.7818 3.19324
RightUpLeg  4.42539 -17.7366 -14.9083
RightLeg  8.05464 -40.7417 1.9938
RightFoot  -3.11723 -0.669763 9.01659
RightToes  -1.33073e-015 0 -3.6325e-017
Spine  9.42592 1.92051 13.9517
Spine1  6.72637 4.48008 -6.28717
HEad  -16.1351 14.4499 -25.0176
LeftShoulder1  -0.151294 3.88052 -34.0991
LeftArm  15.3918 14.05 -39.1957
LeftForeArm  18.4416 -27.0381 -4.82273
LeftHand  -0.0111409 6.53645 1.97994
RightShoulder  -0.884288 -5.89121 30.4396
RightArm  10.7432 -9.82385 37.0747
RightForeArm  24.9633 65.2279 22.5677
RightHand  -1.42563 15.8958 -8.18602
LeftUpLeg  -13.3281 9.62667 -0.113603
LeftLeg  5.50042 36.5541 -2.06107
LeftFoot  -0.850778 -0.307614 3.42811
LeftToes  -1.63346e-009 7.54925e-011 9.86887e-012
725
root  -59.7843 40.2124 -9.62876 4.25098 22.3517 3.47382
RightUpLeg  6.23906 -21.2859 -16.7508
RightLeg  10.2873 -40.4296 0.907226
RightFoot  -3.80923 -0.765689 11.2144
RightToes  -1.33073e-015 0 -3.6325e-017
Spine  8.93904 2.11766 12.8386
Spine1  6.06807 4.77478 -7.34994
HEad  -15.1416 13.0864 -22.9108
LeftShoulder1  -0.180394 3.95592 -33.704
LeftArm  16.0757 14.6385 -38.9453
LeftForeArm  17.5003 -24.9808 -4.39745
LeftHand  0.0117433 8.30634 2.15901
RightShoulder  -0.934717 -5.99615 30.9091
RightArm  9.78474 -11.3329 36.2161
RightForeArm  23.2482 65.0005 22.5233
RightHand  -1.56472 15.7097 -9.00518
LeftUpLeg  -13.2271 9.65022 -1.04707
LeftLeg  6.42546 33.7437 -2.14961
LeftFoot  -0.252187 -0.22619 2.32578
LeftToes  -1.63346e-009 7.54925e-011 9.86887e-012
726
root  -59.1447 40.0163 -9.21704 4.60803 27.1132 4.84137
RightUpLeg  8.67971 -32.054 -21.2999
RightLeg  14.2214 -30.7999 -2.63209
RightFoot  -4.07218 -0.907793 13.7207
RightToes  -1.33073e-015 0 -3.6325e-017
Spine  8.13856 2.25198 10.3143
Spine1  6.35953 4.74605 -7.46442
HEad  -14.3833 11.1551 -20.5922
LeftShoulder1  -0.235462 4.08851 -34.0508
LeftArm  15.7566 14.398 -38.1709
LeftForeArm  17.0768 -22.0423 -4.43128
LeftHand  -0.00893378 7.80922 1.49846
RightShoulder  -0.925657 -5.9873 30.6647
RightArm  8.79292 -13.0624 35.5496
RightForeArm  22.4043 64.9642 22.5934
RightHand  -1.62329 16.2249 -9.11793
LeftUpLeg  -13.6955 9.45328 -3.65758
LeftLeg  9.19795 29.2435 -0.985741
LeftFoot  -0.552989 -0.483132 5.16952
LeftToes  -1.63346e-009 7.54925e-011 9.86887e-012
727
root  -58.3887 39.8198 -8.8032 4.50867 32.6045 6.23035
RightUpLeg  11.4855 -41.4665 -26.6582
RightLeg  19.5276 -18.66 -7.17437
RightFoot  -2.7728 -1.17078 15.3348
RightToes  -1.33073e-015 0 -3.6325e-017
Spine  7.13995 2.07588 8.72053
Spine1  7.37501 4.5996 -8.14049
HEad  -13.0813 9.39148 -18.1844
LeftShoulder1  -0.0840583 3.71693 -33.4306
LeftArm  10.3897 13.6673 -38.1072
LeftForeArm  21.7096 -17.8081 -6.18644
LeftHand  -0.018296 8.0012 1.16014
RightShoulder  -1.04787 -6.27771 31.2207
RightArm  7.15228 -14.8747 34.6079
RightForeArm  22.3872 65.3091 23.0244
RightHand  -1.44053 16.2509 -8.13967
LeftUpLeg  -13.0576 9.52509 -6.47695
LeftLeg  11.6561 23.8316 0.256268
LeftFoot  -1.99595 -0.529729 6.61747
LeftToes  -1.63346e-009 7.54925e-011 9.86887e-012
728
root  -57.6789 39.7395 -8.46301 4.04285 37.0891 6.54486
RightUpLeg  9.54787 -32.6581 -25.4773
RightLeg  27.2485 -18.7655 -10.489
RightFoot  1.16765 -1.21446 11.4136
RightToes  -1.33073e-015 0 -3.6325e-017
Spine  7.11752 2.01036 8.07706
Spine1  7.51127 4.55324 -8.52108
HEad  -11.3187 6.96778 -16.9932
LeftShoulder1  -0.142803 3.86198 -33.6867
LeftArm  3.07349 12.5845 -37.3854
LeftForeArm  27.5532 -13.5232 -7.85149
LeftHand  -0.0443502 9.02899 0.129229
RightShoulder  -1.01778 -6.20858 31.0614
RightArm  5.76282 -16.5933 34.6787
RightForeArm  23.3289 65.6918 23.3813
RightHand  -1.56254 15.8136 -8.94788
LeftUpLeg  -12.0348 10.0177 -7.81117
LeftLeg  13.3846 19.1738 0.770769
LeftFoot  -3.41267 -0.485721 7.28427
LeftToes  -1.63346e-009 7.54925e-011 9.86887e-012
729
root  -57.0653 39.651 -8.15328 3.70837 40.6106 6.62732
RightUpLeg  5.90453 -22.2751 -22.6576
RightLeg  35.3823 -13.097 -9.87601
RightFoot  5.04689 -0.953202 6.73461
RightToes  -1.33073e-015 0 -3.6325e-017
Spine  7.37468 2.11881 7.27981
Spine1  7.42597 4.5646 -8.75688
HEad  -10.1273 5.49477 -15.618
LeftShoulder1  -0.236327 4.09453 -33.9202
LeftArm  -2.34047 12.4469 -36.9178
LeftForeArm  30.6772 -11.1485 -7.81527
LeftHand  -0.0332283 8.04508 0.433412
RightShoulder  -1.013 -6.1976 31.0356
RightArm  4.75027 -17.2063 34.9015
RightForeArm  21.4567 65.5435 23.4507
RightHand  -1.85658 15.8743 -10.5183
LeftUpLeg  -11.1671 10.0783 -8.4769
LeftLeg  14.8501 15.6179 1.00659
LeftFoot  -5.12552 -0.352235 7.0291
LeftToes  -1.63346e-009 7.54925e-011 9.86887e-012
730
root  -56.5495 39.5078 -7.85154 3.65015 43.4917 6.90094
RightUpLeg  2.52876 -13.9215 -20.1132
RightLeg  41.9943 -2.18952 -2.39873
RightFoot  3.85921 -1.10125 8.42603
RightToes  -1.33073e-015 0 -3.6325e-017
Spine  7.94226 2.15873 5.99672
Spine1  7.21059 4.44367 -9.44339
HEad  -9.44486 4.56899 -14.1818
LeftShoulder1  -0.292826 4.24408 -33.4182
LeftArm  -4.46844 13.3468 -37.0876
LeftForeArm  30.8492 -10.6982 -7.31341
LeftHand  -0.0347949 7.98464 0.35331
RightShoulder  -1.04431 -6.24948 31.4684
RightArm  4.05729 -16.9672 35.3412
RightForeArm  21.1197 65.7269 23.7367
RightHand  -1.76006 15.9496 -9.96263
LeftUpLeg  -10.7572 8.59957 -8.99282
LeftLeg  16.8626 14.2858 1.60111
LeftFoot  -6.94778 -0.209415 6.56086
LeftToes  -1.63346e-009 7.54925e-011 9.86887e-012
731
root  -56.0291 39.4403 -7.53118 3.87256 46.7276 6.97247
RightUpLeg  -1.1877 -8.20392 -17.4387
RightLeg  48.6479 3.24137 3.51965
RightFoot  3.69999 -1.37882 10.6201
RightToes  -1.33073e-015 0 -3.6325e-017
Spine  7.73266 2.15783 4.05817
Spine1  7.35868 3.81008 -8.37491
HEad  -9.14846 3.06895 -13.387
LeftShoulder1  -0.248754 4.1247 -33.9237
LeftArm  -3.79567 13.8201 -36.4784
LeftForeArm  29.3035 -10.7036 -7.49445
LeftHand  -0.0326234 8.63466 0.496295
RightShoulder  -1.06762 -6.3141 31.4307
RightArm  3.06561 -16.4798 36.0545
RightForeArm  20.9149 66.127 24.3092
RightHand  -1.74399 16.0413 -9.83659
LeftUpLeg  -10.3237 6.56301 -9.34541
LeftLeg  17.9913 13.1119 1.95763
LeftFoot  -8.255 -0.124393 6.4535
LeftToes  -1.63346e-009 7.54925e-011 9.86887e-012
732
root  -55.4722 39.4687 -7.16282 3.80579 49.5772 6.51257
RightUpLeg  -5.05656 -3.98826 -14.5652
RightLeg  53.4622 3.46506 4.57168
RightFoot  2.91479 -1.3921 11.2581
RightToes  -1.33073e-015 0 -3.6325e-017
Spine  7.29716 2.03534 2.48255
Spine1  7.35409 3.14164 -7.1521
HEad  -8.32413 2.67545 -12.7384
LeftShoulder1  -0.227972 4.07256 -33.8605
LeftArm  -2.63803 14.5691 -36.5078
LeftForeArm  28.8219 -11.2636 -7.60334
LeftHand  -0.0375176 8.59144 0.315186
RightShoulder  -1.06618 -6.30895 31.4444
RightArm  2.32882 -16.0805 36.9196
RightForeArm  21.7724 67.0113 25.4535
RightHand  -1.71859 16.1905 -9.63715
LeftUpLeg  -9.24554 5.08462 -9.08541
LeftLeg  17.8106 11.6929 1.65551
LeftFoot  -9.41954 -0.0485832 6.2778
LeftToes  -1.63346e-009 7.54925e-011 9.86887e-012
